<?xml version="1.0" standalone="no"?>
<!DOCTYPE svg PUBLIC "-//W3C//DTD SVG 20010904//EN"
 "http://www.w3.org/TR/2001/REC-SVG-20010904/DTD/svg10.dtd">
<svg version="1.0" xmlns="http://www.w3.org/2000/svg"
 width="512.000000pt" height="512.000000pt" viewBox="0 0 512.000000 512.000000"
 preserveAspectRatio="xMidYMid meet">
<metadata>
Created by potrace 1.14, written by Peter Selinger 2001-2017
</metadata>
<g transform="translate(0.000000,512.000000) scale(0.100000,-0.100000)"
fill="#000000" stroke="none">
<path d="M2127 5065 c-1 -2 -33 -5 -72 -8 -274 -22 -563 -157 -787 -367 -80
-75 -193 -213 -245 -300 -83 -137 -197 -432 -248 -640 -3 -14 -7 -29 -9 -35
-6 -22 -16 -72 -20 -98 -3 -15 -7 -35 -10 -45 -28 -97 -34 -272 -26 -762 5
-265 -16 -422 -89 -667 -20 -69 -87 -210 -149 -316 -59 -102 -149 -278 -179
-352 -36 -87 -68 -182 -98 -287 -30 -101 -40 -150 -70 -313 -6 -36 -7 -233 -1
-243 2 -4 7 -24 10 -44 13 -83 71 -200 131 -267 l33 -37 -14 -59 c-15 -66 -25
-120 -27 -149 -1 -10 11 -28 26 -40 26 -19 30 -19 55 -6 21 12 30 30 44 80 9
36 17 66 17 68 1 1 1 5 1 9 0 3 10 -3 23 -14 57 -52 215 -114 329 -129 24 -3
54 -7 68 -10 14 -2 82 -4 151 -5 103 0 137 4 189 21 208 70 312 263 252 464
l-21 68 42 -7 c23 -4 43 -9 45 -10 2 -2 -8 -62 -22 -134 -14 -72 -26 -140 -26
-150 0 -22 35 -51 60 -51 40 0 52 25 81 165 15 76 31 141 36 146 4 4 31 4 58
-1 56 -9 210 -21 330 -25 44 -2 87 -4 95 -4 13 -1 15 -21 13 -129 -2 -148 6
-175 53 -180 38 -4 64 19 65 56 0 15 1 78 1 140 0 61 3 112 7 113 3 0 47 2 96
4 118 5 328 22 377 31 14 2 20 -12 33 -70 19 -87 21 -97 30 -158 12 -77 54
-107 103 -72 28 20 28 43 -3 196 -14 68 -25 124 -25 125 0 2 8 3 18 3 9 0 78
16 152 35 74 19 142 37 151 39 12 3 20 -9 32 -47 44 -142 73 -269 102 -447 9
-52 23 -102 31 -110 12 -12 54 -15 240 -16 206 -1 226 0 249 17 15 13 22 27
20 42 -2 12 -6 47 -10 77 -20 173 -100 478 -167 640 l-18 45 30 -35 c42 -49
98 -149 141 -255 32 -77 109 -336 123 -415 14 -75 21 -93 42 -107 26 -17 54
-11 79 17 17 19 17 24 -4 117 -41 185 -90 347 -142 467 -21 50 -41 109 -44
131 -24 162 -32 197 -65 297 -33 99 -70 177 -141 294 -70 117 -116 218 -138
304 -15 62 -18 104 -15 235 1 88 5 171 7 185 3 14 8 45 11 70 4 25 11 68 16
95 5 28 12 66 14 85 3 19 8 46 10 60 3 14 8 48 11 75 4 28 8 64 11 80 38 282
46 650 19 880 -48 417 -118 686 -228 868 -259 431 -661 715 -1080 762 -61 7
-165 13 -170 10z m251 -721 c55 -27 99 -59 171 -128 59 -57 117 -102 152 -119
77 -37 116 -97 134 -204 10 -61 14 -88 20 -138 3 -27 13 -83 21 -124 8 -40 14
-74 12 -76 -2 -2 -32 3 -68 11 -76 17 -209 19 -271 5 -106 -24 -143 -56 -119
-102 11 -20 16 -21 113 -14 126 10 306 13 346 7 26 -4 35 -14 70 -86 23 -45
65 -111 94 -146 52 -62 54 -67 51 -119 -4 -89 -16 -246 -19 -251 -2 -3 -6 -26
-10 -50 -19 -132 -77 -326 -130 -432 -53 -106 -107 -179 -193 -263 -145 -141
-287 -229 -462 -286 -105 -34 -164 -33 -275 5 -172 60 -307 145 -453 289 -106
104 -239 324 -228 380 12 64 33 131 67 212 39 95 76 207 84 259 3 17 8 38 10
46 2 8 7 42 11 75 7 68 10 74 48 81 26 4 27 3 12 -11 -19 -19 -18 -15 -22 -81
-5 -88 49 -142 123 -122 39 10 64 45 70 94 4 43 -14 114 -29 114 -6 0 -9 3 -6
6 3 3 23 -4 44 -15 46 -25 58 -26 78 -6 31 31 3 79 -73 123 -34 20 -59 26
-115 28 -39 1 -80 -2 -92 -6 -21 -8 -21 -7 -17 53 7 96 7 102 16 108 9 7 117
4 245 -6 91 -7 112 1 112 41 0 51 -103 84 -261 85 l-86 0 17 72 c56 232 166
449 296 580 151 153 340 194 512 111z m933 -1236 c50 -28 89 -102 89 -168 0
-87 -49 -190 -123 -260 -25 -24 -40 -30 -70 -28 -37 2 -37 2 -32 38 3 20 10
51 15 69 10 37 10 35 10 64 1 33 24 57 60 62 92 11 87 118 -5 118 l-34 0 2 64
c2 59 3 63 26 63 13 0 41 -10 62 -22z m-100 -567 c20 -16 22 -23 14 -46 -13
-36 -46 -48 -74 -29 -25 18 -27 51 -4 76 21 23 35 23 64 -1z m-1051 -855 c70
0 101 6 180 33 52 18 100 34 105 37 6 2 11 -15 13 -39 5 -71 31 -166 63 -231
61 -121 152 -196 326 -266 l95 -38 55 -113 c59 -120 104 -217 127 -273 13 -31
13 -35 -2 -39 -457 -131 -914 -156 -1501 -81 -68 9 -133 18 -145 20 -11 2 -41
7 -66 10 -25 3 -48 8 -52 10 -11 7 -22 112 -20 199 1 76 25 225 41 254 5 7 49
30 98 50 123 51 179 85 238 146 88 89 145 232 155 386 0 3 46 -10 103 -29 85
-29 116 -35 187 -36z"/>
<path d="M2607 3295 c-50 -17 -81 -41 -110 -86 -15 -23 -15 -27 -1 -47 15 -22
48 -30 58 -13 3 5 20 14 38 20 30 11 30 10 15 -7 -15 -17 -23 -68 -18 -128 1
-27 44 -70 75 -76 32 -6 80 14 100 43 20 29 21 114 2 152 -8 15 -14 27 -13 27
1 0 18 -5 37 -11 90 -28 166 -13 188 35 14 33 4 46 -37 46 -21 0 -66 12 -102
27 -74 30 -174 39 -232 18z"/>
<path d="M2019 2789 c-38 -38 -16 -86 56 -121 49 -24 91 -28 142 -13 91 27
134 102 81 139 -30 21 -44 20 -80 -6 -37 -26 -81 -28 -108 -3 -28 25 -68 27
-91 4z"/>
<path d="M2037 2464 c-3 -4 -45 -6 -92 -6 -74 1 -86 -1 -95 -18 -26 -49 55
-90 176 -90 35 0 65 -4 68 -9 10 -16 70 -19 116 -5 25 8 68 14 96 14 28 0 74
7 102 15 58 18 79 43 62 76 -10 17 -20 20 -68 18 -31 -2 -90 1 -130 5 -52 6
-77 5 -87 -4 -11 -9 -22 -9 -46 -1 -35 12 -92 15 -102 5z"/>
<path d="M2066 2258 c-22 -19 -26 -29 -20 -54 14 -72 177 -85 220 -19 13 21
14 28 2 52 -12 26 -18 28 -73 28 -33 0 -70 4 -82 8 -15 6 -28 1 -47 -15z"/>
<path d="M4115 5011 c-46 -11 -76 -30 -123 -75 -48 -46 -72 -110 -71 -187 2
-58 -1 -63 -65 -104 -63 -41 -80 -59 -105 -116 -55 -123 -9 -260 109 -326 56
-31 62 -44 65 -123 3 -144 133 -260 273 -244 26 3 75 19 109 36 l63 32 67 -34
c120 -59 234 -41 316 50 48 54 67 106 67 188 0 38 5 53 23 70 13 12 29 22 36
22 6 0 33 21 59 48 123 123 93 325 -59 402 -52 27 -59 40 -62 116 -5 102 -42
165 -130 221 -36 23 -53 27 -117 28 -67 0 -81 -4 -137 -35 l-62 -34 -63 32
c-66 34 -138 46 -193 33z m287 -328 c9 -11 13 -54 14 -130 1 -76 5 -118 13
-122 7 -4 37 -7 67 -6 63 3 95 -16 99 -57 5 -46 -25 -63 -114 -62 -92 2 -140
26 -167 86 -18 41 -26 212 -12 266 14 49 68 63 100 25z"/>
<path d="M439 4537 c-9 -7 -26 -31 -37 -54 -16 -29 -37 -50 -72 -70 -81 -45
-82 -90 -1 -143 32 -21 61 -51 72 -73 24 -45 60 -71 89 -62 12 4 37 31 56 61
22 34 49 61 72 73 83 42 84 88 3 142 -31 21 -62 51 -73 72 -30 59 -74 81 -109
54z"/>
<path d="M3977 2988 c-10 -5 -29 -27 -43 -49 -13 -22 -40 -47 -59 -56 -19 -9
-38 -25 -41 -36 -9 -27 12 -61 46 -74 15 -6 40 -29 54 -51 45 -71 79 -75 115
-12 12 21 38 49 59 61 68 42 69 67 7 111 -25 18 -54 47 -64 64 -24 41 -50 56
-74 42z"/>
</g>
</svg>
